<svg width="225" height="88" viewBox="0 0 225 88" fill="none" xmlns="http://www.w3.org/2000/svg">
<path d="M45.5909 17.858L47.2408 18.8954L45.5909 17.858L25.9392 49.1109C24.9457 50.6909 24.577 52.5845 24.9051 54.4218L25.1107 55.5726C25.7495 59.1495 28.8604 61.754 32.4938 61.754H44.3696C46.3026 61.754 47.8696 63.321 47.8696 65.254V66C47.8696 70.1421 51.2275 73.5 55.3696 73.5H55.7276C59.8698 73.5 63.2276 70.1421 63.2276 66V63.3902C63.2276 62.4865 63.9602 61.754 64.8638 61.754C67.9766 61.754 70.5 59.2306 70.5 56.1178V53.8663C70.5 50.7536 67.9766 48.2302 64.8638 48.2302C63.9602 48.2302 63.2276 47.4976 63.2276 46.594V31.5633C63.2276 27.8 58.3706 26.2899 56.2367 29.3898L57.8842 30.5238L56.2367 29.3898L48.8686 40.0936C48.218 41.0388 47.8696 42.1592 47.8696 43.3067V48.2302H42.9376L57.6847 25.6001C60.797 20.824 57.3699 14.5 51.6692 14.5C49.2005 14.5 46.905 15.7682 45.5909 17.858Z" stroke="#303030" stroke-width="4"/>
<path d="M175.591 17.858L177.241 18.8954L175.591 17.858L155.939 49.1109C154.946 50.6909 154.577 52.5845 154.905 54.4218L155.111 55.5726C155.749 59.1495 158.86 61.754 162.494 61.754H174.37C176.303 61.754 177.87 63.321 177.87 65.254V66C177.87 70.1421 181.228 73.5 185.37 73.5H185.728C189.87 73.5 193.228 70.1421 193.228 66V63.3902C193.228 62.4865 193.96 61.754 194.864 61.754C197.977 61.754 200.5 59.2306 200.5 56.1178V53.8663C200.5 50.7536 197.977 48.2302 194.864 48.2302C193.96 48.2302 193.228 47.4976 193.228 46.594V31.5633C193.228 27.8 188.371 26.2899 186.237 29.3898L187.884 30.5238L186.237 29.3898L178.869 40.0936C178.218 41.0388 177.87 42.1592 177.87 43.3067V48.2302H172.938L187.685 25.6001C190.797 20.824 187.37 14.5 181.669 14.5C179.201 14.5 176.905 15.7682 175.591 17.858Z" stroke="#303030" stroke-width="4"/>
<path d="M88.5 14.5C85.1863 14.5 82.5 17.1863 82.5 20.5V67.5C82.5 70.8137 85.1863 73.5 88.5 73.5H137.5C140.814 73.5 143.5 70.8137 143.5 67.5V20.5C143.5 17.1863 140.814 14.5 137.5 14.5H88.5Z" stroke="#303030" stroke-width="4" stroke-linecap="square" stroke-linejoin="round"/>
<path d="M93.6953 30.2129L102.695 39.2129" stroke="#303030" stroke-width="4" stroke-linecap="round"/>
<path d="M102.695 30.2129L93.6955 39.2129" stroke="#303030" stroke-width="4" stroke-linecap="round"/>
<path d="M123.039 30.2129L132.039 39.2129" stroke="#303030" stroke-width="4" stroke-linecap="round"/>
<path d="M132.039 30.2129L123.039 39.2129" stroke="#303030" stroke-width="4" stroke-linecap="round"/>
<path d="M96.6159 57.5563C95.8186 58.3207 95.7919 59.5867 96.5563 60.3841C97.3207 61.1814 98.5867 61.2081 99.3841 60.4437L96.6159 57.5563ZM99.6959 57.3742L101.08 58.8179H101.08L99.6959 57.3742ZM126.304 57.3742L127.688 55.9305V55.9305L126.304 57.3742ZM126.616 60.4437C127.413 61.2081 128.679 61.1814 129.444 60.3841C130.208 59.5867 130.181 58.3207 129.384 57.5563L126.616 60.4437ZM99.3841 60.4437L101.08 58.8179L98.3118 55.9305L96.6159 57.5563L99.3841 60.4437ZM124.92 58.8179L126.616 60.4437L129.384 57.5563L127.688 55.9305L124.92 58.8179ZM101.08 58.8179C107.781 52.394 118.219 52.394 124.92 58.8179L127.688 55.9305C119.44 48.0232 106.56 48.0232 98.3118 55.9305L101.08 58.8179Z" fill="#303030"/>
</svg>
